<?xml version="1.0" encoding="iso-8859-1"?>
<!-- Generator: Adobe Illustrator 19.0.0, SVG Export Plug-In . SVG Version: 6.00 Build 0)  -->
<svg version="1.1" id="Layer_1" xmlns="http://www.w3.org/2000/svg" xmlns:xlink="http://www.w3.org/1999/xlink" x="0px" y="0px"
	 viewBox="0 0 512 512" style="enable-background:new 0 0 512 512;" xml:space="preserve">
<g>
	<g>
		<path d="M494.079,478.116h-17.174V238.457c6.248-6.907,11.659-14.757,16.043-23.449c17.512-34.727,15.083-74.638-6.502-106.761
			c-0.071-0.107-0.145-0.214-0.219-0.319L415.13,7.174C411.954,2.675,406.792,0,401.287,0c-0.023,0-0.045,0-0.069,0
			c-5.53,0.023-10.702,2.742-13.853,7.286l-48.334,69.682l-78.616-38.58c-4.765-2.339-10.35-2.309-15.088,0.08L185.44,68.653V53.597
			c0-9.356-7.585-16.942-16.942-16.942H100.08c-9.356,0-16.942,7.585-16.942,16.942v66.617L20.13,151.972
			c-8.355,4.212-11.715,14.399-7.504,22.754c4.164,8.262,14.168,11.627,22.469,7.63v295.761H17.921
			c-9.356,0-16.942,7.585-16.942,16.942S8.565,512,17.921,512h476.158c9.356,0,16.942-7.585,16.942-16.942
			S503.435,478.116,494.079,478.116z M117.022,70.539h34.534v15.192l-34.534,17.406C117.022,103.137,117.022,70.539,117.022,70.539z
			 M68.979,165.296l184.075-92.777l66.447,32.609l-1.297,1.869c-15.643,21.448-22.242,47.596-19.332,73.207H68.979V165.296z
			 M285.837,478.116h-59.674V343.162h59.674V478.116z M443.021,478.117h-123.3V326.22c0-9.356-7.585-16.942-16.942-16.942h-93.557
			c-9.356,0-16.942,7.585-16.942,16.942v151.896h-123.3v-264.03h239.703c16.585,34.385,48.991,55.92,86.757,57.623
			c1.745,0.078,3.509,0.117,5.246,0.117s3.502-0.039,5.249-0.117c13.117-0.591,25.628-3.586,37.087-8.673V478.117z M391.888,221.761
			l8.897-17.592l8.896,17.591c2.27,4.49,0.473,8.294-0.404,9.72c-0.876,1.428-3.461,4.747-8.491,4.747
			c-5.031,0-7.614-3.319-8.492-4.747C391.414,230.052,389.619,226.248,391.888,221.761z M462.693,199.752
			c-4.566,9.057-10.777,16.761-18.174,22.831c-0.472-5.511-2.003-10.973-4.601-16.114l-20.589-40.717
			c-3.557-7.034-10.662-11.403-18.545-11.403c-7.881,0-14.987,4.37-18.542,11.402l-20.59,40.718
			c-2.584,5.11-4.109,10.538-4.591,16.013c-7.379-6.179-13.514-14.043-17.947-23.297c-11.499-24.001-9.046-51.048,6.561-72.349
			c0.086-0.117,0.171-0.236,0.254-0.356l55.48-79.985l57.015,80.803C472.989,149.091,474.589,176.163,462.693,199.752z"/>
	</g>
</g>
<g>
</g>
<g>
</g>
<g>
</g>
<g>
</g>
<g>
</g>
<g>
</g>
<g>
</g>
<g>
</g>
<g>
</g>
<g>
</g>
<g>
</g>
<g>
</g>
<g>
</g>
<g>
</g>
<g>
</g>
</svg>
