<svg height="512" viewBox="0 0 60 59" width="512" xmlns="http://www.w3.org/2000/svg"><g id="Page-1" fill="none" fill-rule="evenodd"><g id="031---Gas-Leak" fill="rgb(0,0,0)" fill-rule="nonzero" transform="translate(0 -1)"><rect id="Rectangle-path" height="28" rx="2" width="8" x="10" y="32"/><path id="Shape" d="m2 35h6v22h-6c-1.1045695 0-2-.8954305-2-2v-18c0-1.1045695.8954305-2 2-2z"/><path id="Shape" d="m41 35-3.693 6.463c-.1880478.3288704-.1741103.7357677.036 1.051l1.2 1.8c.2645074.3966765.2121853.9249206-.125 1.262l-2.713 2.713c-.285661.2839817-.7138174.3688518-1.0862053.2153101-.3723879-.1535418-.6163021-.5155178-.6187947-.9183101v-2.172c-.0000566-.2651948-.1054506-.5195073-.293-.707l-2.167-2.167c-.3172333-.3183707-.3830955-.8092693-.161-1.2l3.621-6.34h-15v22h38c1.1032019-.0032948 1.9967052-.8967981 2-2v-18c-.0032948-1.1032019-.8967981-1.9967052-2-2z"/><path id="Shape" d="m49 12c0-2.209139-1.790861-4-4-4-.720209.00339479-1.4257321.20398471-2.04.58-.1232125-1.65549016-1.0685555-3.13881643-2.5171472-3.94962539-1.4485917-.81080895-3.2072897-.84099454-4.6828528-.08037461-.6263489-2.10631112-2.5625334-3.55052976-4.76-3.55052976s-4.1336511 1.44421864-4.76 3.55052976c-1.4755631-.76061993-3.2342611-.73043434-4.6828528.08037461-1.4485917.81080896-2.3939347 2.29413523-2.5171472 3.94962539-.6142679-.37601529-1.319791-.57660521-2.04-.58-1.8813591-.00342803-3.5100241 1.30655488-3.9099813 3.1449123-.3999572 1.8383575.5372508 3.7065775 2.2499813 4.4850877-.681391 1.3145583-.299551 2.9297623.8983455 3.8000503s2.8520366.7342513 3.8916545-.3200503c.5199902 2.2721612 2.539103 3.8849638 4.87 3.89.7913172-.0060837 1.5696782-.2015312 2.27-.57.5900278 1.5472689 2.0740489 2.5696203 3.73 2.5696203s3.1399722-1.0223514 3.73-2.5696203c.7003218.3684688 1.4786828.5639163 2.27.57 2.330897-.0050362 4.3500098-1.6178388 4.87-3.89 1.0386922 1.058063 2.6954864 1.1961745 3.8950268.3246921 1.1995405-.8714824 1.5802275-2.4898517.8949732-3.8046921 1.4252535-.6453893 2.3406526-2.0654315 2.34-3.63z"/><path id="Shape" d="m48 19c-.5522847 0-1 .4477153-1 1-.0009802.8089433-.489171 1.5376384-1.2369205 1.8462821-.7477495.3086436-1.6077939.1364508-2.1790795-.4362821-.2558689-.2605968-.6334525-.3609813-.984956-.2618606-.3515034.0991207-.6210159.38198-.703044.7378606-.4086257 1.8226366-2.0281216 3.1170694-3.896 3.114-.6324031-.0053526-1.2542355-.1627829-1.813-.459-.2521502-.1297363-.5475249-.1463205-.812613-.0456252s-.4749611.309201-.577387.5736252c-.4479653 1.1564692-1.5568334 1.9220124-2.797 1.931-.5522847 0-1 .4477153-1 1 0 1.038.836 3 4 3 1.84 0 1.989.857 2 1v2c0 .5522847.4477153 1 1 1s1-.4477153 1-1v-1.979c.015-.185.181-1.021 2-1.021 5.309 0 8-3.7 8-11 0-.5522847-.4477153-1-1-1z"/></g></g></svg>